# xmcd
#
# Track frame offsets:
#       150
#       15745
#       34159
#       62724
#       81389
#       97464
#       117729
#       130534
#       151209
#       170064
#
# Disc length: 2528 seconds
#
# Revision: 0
# Processed by: cddbd v1.4PL0 Copyright (c) Steve Scherf et al.
#
# Submitted via: MusicManager v5.1.0.0
#
DISCID=8a09de0a
DTITLE=Eagles - Greatest Hits
DYEAR=1900
DGENRE=country
TTITLE0=Take It Easy
TTITLE1=Witchy Woman
TTITLE2=Lyin' Eyes
TTITLE3=Already Gone
TTITLE4=Desperado
TTITLE5=One Of These Nights
TTITLE6=Tequila Sunrise
TTITLE7=Take It To The Limit
TTITLE8=Peacful, Easy Feeling
TTITLE9=Best Of My Love
EXTD=
EXTT0=
EXTT1=
EXTT2=
EXTT3=
EXTT4=
EXTT5=
EXTT6=
EXTT7=
EXTT8=
EXTT9=
PLAYORDER=
